<?xml version="1.0" encoding="UTF-8"?>
<svg xmlns="http://www.w3.org/2000/svg" width="704.1953599999999" height="1356" viewBox="-8 -28 704.1953599999999 1356" class="mermaid">
  <style>
.mermaid{font-family:trebuchet ms, verdana, arial, sans-serif;font-size:16px;fill:#333333;}
.error-icon{fill:#552222;}
.error-text{fill:#552222;stroke:#552222;}
.edge-thickness-normal{stroke-width:1px;}
.edge-thickness-thick{stroke-width:3.5px;}
.edge-pattern-solid{stroke-dasharray:0;}
.edge-thickness-invisible{stroke-width:0;fill:none;}
.edge-pattern-dashed{stroke-dasharray:3;}
.edge-pattern-dotted{stroke-dasharray:2;}
.marker{fill:#333333;stroke:#333333;}
.marker.cross{stroke:#333333;}
svg{font-family:trebuchet ms, verdana, arial, sans-serif;font-size:16px;}
p{margin:0;}
.label{font-family:trebuchet ms, verdana, arial, sans-serif;color:#333333;}
.cluster-label text{fill:#333333;}
.cluster-label span{color:#333333;}
.cluster-label span p{background-color:transparent;}
.label text,span{fill:#333333;color:#333333;}
.node rect,.node circle,.node ellipse,.node polygon,.node path{fill:#ECECFF;stroke:#9370DB;stroke-width:1px;}
.rough-node .label text,.node .label text,.image-shape .label,.icon-shape .label{text-anchor:middle;}
.node .katex path{fill:#000;stroke:#000;stroke-width:1px;}
.rough-node .label,.node .label,.image-shape .label,.icon-shape .label{text-align:center;}
.node.clickable{cursor:pointer;}
.root .anchor path{fill:#333333!important;stroke-width:0;stroke:#333333;}
.arrowheadPath{fill:#333333;}
.edgePath .path{stroke:#333333;stroke-width:2.0px;}
.flowchart-link{stroke:#333333;fill:none;}
.edgeLabel{background-color:rgba(232, 232, 232, 0.8);text-align:center;}
.edgeLabel p{background-color:rgba(232, 232, 232, 0.8);}
.edgeLabel rect{opacity:0.5;background-color:rgba(232, 232, 232, 0.8);fill:rgba(232, 232, 232, 0.8);}
.labelBkg{background-color:rgba(232, 232, 232, 0.5);}
.cluster rect{fill:#ffffde;stroke:#aaaa33;stroke-width:1px;}
.cluster text{fill:#333333;}
.cluster span{color:#333333;}
.flowchartTitleText{text-anchor:middle;font-size:18px;fill:#333333;}
rect.text{fill:none;stroke-width:0;}

  </style>
  <defs>
    <marker id="arrow_point" viewBox="0 0 10 10" refX="10" refY="5" markerWidth="8" markerHeight="8" orient="auto" markerUnits="userSpaceOnUse">
      <path d="M 0 0 L 10 5 L 0 10 z" class="marker"/>
    </marker>
    <marker id="arrow_point_start" viewBox="0 0 10 10" refX="4.5" refY="5" markerWidth="8" markerHeight="8" orient="auto" markerUnits="userSpaceOnUse">
      <path d="M 0 5 L 10 10 L 10 0 z" class="marker"/>
    </marker>
    <marker id="arrow_cross" viewBox="0 0 11 11" refX="12" refY="5.2" markerWidth="11" markerHeight="11" orient="auto" markerUnits="userSpaceOnUse">
      <path d="M 1 1 L 10 10 M 10 1 L 1 10" class="marker cross" fill="none" stroke-width="2"/>
    </marker>
    <marker id="arrow_cross_start" viewBox="0 0 11 11" refX="-1" refY="5.2" markerWidth="11" markerHeight="11" orient="auto" markerUnits="userSpaceOnUse">
      <path d="M 1 1 L 10 10 M 10 1 L 1 10" class="marker cross" fill="none" stroke-width="2"/>
    </marker>
    <marker id="arrow_circle" viewBox="0 0 10 10" refX="11" refY="5" markerWidth="11" markerHeight="11" orient="auto" markerUnits="userSpaceOnUse">
      <circle cx="5" cy="5" r="5" class="marker"/>
    </marker>
    <marker id="arrow_circle_start" viewBox="0 0 10 10" refX="-1" refY="5" markerWidth="11" markerHeight="11" orient="auto" markerUnits="userSpaceOnUse">
      <circle cx="5" cy="5" r="5" class="marker"/>
    </marker>
  </defs>
  <g class="root">
    <g class="clusters">
      <g class="cluster" id="subgraph-Terminal">
        <rect x="211.20702399999993" y="-20" width="300" height="447" class="cluster"/>
        <text x="361.20702399999993" y="-4" class="cluster-label" text-anchor="middle">Terminal Output Layers</text>
      </g>
      <g class="cluster" id="subgraph-Problem">
        <rect x="390" y="548" width="278.19535999999994" height="767" class="cluster"/>
        <text x="529.09768" y="564" class="cluster-label" text-anchor="middle">The Fragility</text>
      </g>
      <g class="cluster" id="subgraph-Solution">
        <rect x="20" y="536" width="300" height="473" class="cluster"/>
        <text x="170" y="552" class="cluster-label" text-anchor="middle">Select-to-Open Pattern</text>
      </g>
    </g>
    <g class="edgePaths">
      <g class="edge" id="edge-L-Layer1-Calc-0">
        <path d="M361.20702399999993,127L361.2070239999999,133.16666666666666C361.207024,139.33333333333334,361.207024,151.66666666666666,361.2070239999999,163.33333333333334C361.207024,175,361.207024,186,361.2070239999999,191.5L361.20702399999993,197" class="edge-thickness-normal edge-pattern-dotted edge-thickness-normal edge-pattern-solid flowchart-link" marker-end="url(#arrow_point)"/>
      </g>
      <g class="edge" id="edge-L-Calc-Layer2-0">
        <path d="M361.20702399999993,255L361.2070239999999,261.1666666666667C361.207024,267.3333333333333,361.207024,279.6666666666667,361.2070239999999,291.3333333333333C361.207024,303,361.207024,314,361.2070239999999,319.5L361.20702399999993,325" class="edge-thickness-normal edge-pattern-solid edge-thickness-normal edge-pattern-solid flowchart-link" marker-end="url(#arrow_point)"/>
      </g>
      <g class="edge" id="edge-L-P1-P2-0">
        <path d="M529.09768,647L529.09768,653.1666666666666C529.09768,659.3333333333334,529.09768,671.6666666666666,529.09768,682C529.09768,692.3333333333334,529.09768,700.6666666666666,529.09768,708.3333333333334C529.09768,716,529.09768,723,529.09768,726.5L529.09768,730" class="edge-thickness-normal edge-pattern-solid edge-thickness-normal edge-pattern-solid flowchart-link" marker-end="url(#arrow_point)"/>
      </g>
      <g class="edge" id="edge-L-P2-P3-0">
        <path d="M529.09768,812L529.09768,816.1666666666666C529.09768,820.3333333333334,529.09768,828.6666666666666,529.09768,837C529.09768,845.3333333333334,529.09768,853.6666666666666,529.09768,863.3333333333334C529.09768,873,529.09768,884,529.09768,889.5L529.09768,895" class="edge-thickness-normal edge-pattern-solid edge-thickness-normal edge-pattern-solid flowchart-link" marker-end="url(#arrow_point)"/>
      </g>
      <g class="edge" id="edge-L-P3-P4-0">
        <path d="M529.09768,977L529.09768,983.1666666666666C529.09768,989.3333333333334,529.09768,1001.6666666666666,529.09768,1012C529.09768,1022.3333333333334,529.09768,1030.6666666666667,529.09768,1038.3333333333333C529.09768,1046,529.09768,1053,529.09768,1056.5L529.09768,1060" class="edge-thickness-normal edge-pattern-solid edge-thickness-normal edge-pattern-solid flowchart-link" marker-end="url(#arrow_point)"/>
      </g>
      <g class="edge" id="edge-L-P4-P5-0">
        <path d="M529.09768,1142L529.09768,1146.1666666666667C529.09768,1150.3333333333333,529.09768,1158.6666666666667,529.09768,1167C529.09768,1175.3333333333333,529.09768,1183.6666666666667,529.09768,1191.3333333333333C529.09768,1199,529.09768,1206,529.09768,1209.5L529.09768,1213" class="edge-thickness-normal edge-pattern-solid edge-thickness-normal edge-pattern-solid flowchart-link" marker-end="url(#arrow_point)"/>
      </g>
      <g class="edge" id="edge-L-S1-S2-0">
        <path d="M170,659L170,663.1666666666666C170,667.3333333333334,170,675.6666666666666,170,684C170,692.3333333333334,170,700.6666666666666,170,710.3333333333334C170,720,170,731,170,736.5L170,742" class="edge-thickness-normal edge-pattern-solid edge-thickness-normal edge-pattern-solid flowchart-link" marker-end="url(#arrow_point)"/>
      </g>
      <g class="edge" id="edge-L-S2-S3-0">
        <path d="M170,800L170,806.1666666666666C170,812.3333333333334,170,824.6666666666666,170,835C170,845.3333333333334,170,853.6666666666666,170,861.3333333333334C170,869,170,876,170,879.5L170,883" class="edge-thickness-normal edge-pattern-solid edge-thickness-normal edge-pattern-solid flowchart-link" marker-end="url(#arrow_point)"/>
      </g>
      <g class="edge" id="edge-L-Terminal-Problem-0">
        <path d="M392.68177925311204,432L393.06814937759333,436.1666666666667C393.4545195020747,440.3333333333333,394.2272597510373,448.6666666666667,394.61362987551865,459C395,469.3333333333333,395,481.6666666666667,395,494C395,506.3333333333333,395,518.6666666666666,396.1642059671396,528.3668160052617C397.3284119342791,538.0669653438567,399.65682386855815,545.1339306877135,400.82102983569774,548.6674133596418L401.9852358028373,552.2008960315702" class="edge-thickness-normal edge-pattern-dotted edge-thickness-normal edge-pattern-solid flowchart-link" marker-end="url(#arrow_point)"/>
      </g>
      <g class="edge" id="edge-L-Terminal-Solution-0">
        <path d="M530.5666573278007,432L533.6128437731672,436.1666666666667C536.6590302185338,440.3333333333333,542.7514031092669,448.6666666666667,545.7975895546334,459C548.8437759999999,469.3333333333333,548.8437759999999,481.6666666666667,548.8437759999998,494C548.8437759999999,506.3333333333333,548.8437759999999,518.6666666666666,514.5902085669676,547.7990164965964C480.3366411339354,576.9313663265261,411.82950626787095,622.8627326530521,377.5759388348386,645.8284158163152L343.3223714018064,668.7940989795783" class="edge-thickness-normal edge-pattern-dotted edge-thickness-normal edge-pattern-solid flowchart-link" marker-end="url(#arrow_point)"/>
      </g>
    </g>
    <g class="edgeLabels">
      <g class="edgeLabel" id="edge-label-L-Layer1-Calc-0">
        <rect x="274.4070239999999" y="153" width="173.6" height="22" class="edge-label-bg"/>
        <text x="361.20702399999993" y="164" class="edge-label" text-anchor="middle" dominant-baseline="central">returns (x,y) positions</text>
      </g>
      <g class="edgeLabel" id="edge-label-L-Calc-Layer2-0">
        <rect x="314.00702399999994" y="281" width="94.39999999999999" height="22" class="edge-label-bg"/>
        <text x="361.20702399999993" y="292" class="edge-label" text-anchor="middle" dominant-baseline="central">every redraw</text>
      </g>
      <g class="edgeLabel" id="edge-label-L-Terminal-Problem-0">
        <rect x="333.4" y="483.6073716284917" width="123.19999999999999" height="22" class="edge-label-bg"/>
        <text x="395" y="494.6073716284917" class="edge-label" dominant-baseline="central" text-anchor="middle">current approach</text>
      </g>
      <g class="edgeLabel" id="edge-label-L-Terminal-Solution-0">
        <rect x="440.81496483790835" y="560.7833492694658" width="94.39999999999999" height="22" class="edge-label-bg"/>
        <text x="488.01496483790834" y="571.7833492694658" class="edge-label" dominant-baseline="central" text-anchor="middle">proposed fix</text>
      </g>
    </g>
    <g class="nodes">
      <g class="node default" id="node-Layer1">
        <rect x="231.20702399999993" y="25" width="260" height="102" style="fill:#4a5568 !important;stroke:#cbd5e0 !important;color:#fff !important"/>
        <text x="361.20702399999993" y="76" class="label" style="fill: #fff" text-anchor="middle" dominant-baseline="central"><tspan x="361.20702399999993" y="76" dy="-1.2em">Ratatui Text Buffer</tspan><tspan x="361.20702399999993" dy="1.2em">(Lines, Scroll State,</tspan><tspan x="361.20702399999993" dy="1.2em">Layout)</tspan></text>
      </g>
      <g class="node default" id="node-Layer2">
        <rect x="236.08199999999994" y="329" width="250.25004800000002" height="78" style="fill:#e53e3e !important;stroke:#fc8181 !important;color:#fff !important"/>
        <text x="361.20702399999993" y="368" class="label" text-anchor="middle" dominant-baseline="central" style="fill: #fff"><tspan x="361.20702399999993" y="368" dy="-0.6em">Kitty Graphics Layer</tspan><tspan x="361.20702399999993" dy="1.2em">(Absolute x,y Coordinates)</tspan></text>
      </g>
      <g class="node default" id="node-Calc">
        <rect x="231.90233599999993" y="201" width="258.609376" height="54" style="fill:#805ad5 !important;stroke:#b794f4 !important;color:#fff !important"/>
        <text x="361.20702399999993" y="228" class="label" dominant-baseline="central" text-anchor="middle" style="fill: #fff">resolve_image_placement()</text>
      </g>
      <g class="node default" id="node-P1">
        <rect x="456.64845599999995" y="593" width="144.898448" height="54" style="fill:#2d3748 !important;stroke:#4a5568 !important;color:#fff !important"/>
        <text x="529.09768" y="620" class="label" style="fill: #fff" dominant-baseline="central" text-anchor="middle">Scroll Event</text>
      </g>
      <g class="node default" id="node-P2">
        <rect x="427.144544" y="734" width="203.906272" height="78" style="fill:#2d3748 !important;stroke:#4a5568 !important;color:#fff !important"/>
        <text x="529.09768" y="773" class="label" dominant-baseline="central" style="fill: #fff" text-anchor="middle"><tspan x="529.09768" y="773" dy="-0.6em">Text Buffer Redraws</tspan><tspan x="529.09768" dy="1.2em">(new line positions)</tspan></text>
      </g>
      <g class="node default" id="node-P3">
        <rect x="438.582048" y="899" width="181.031264" height="78" style="fill:#e53e3e !important;stroke:#fc8181 !important;color:#fff !important"/>
        <text x="529.09768" y="938" class="label" text-anchor="middle" style="fill: #fff" dominant-baseline="central"><tspan x="529.09768" y="938" dy="-0.6em">Must Recalculate</tspan><tspan x="529.09768" dy="1.2em">Image Positions</tspan></text>
      </g>
      <g class="node default" id="node-P4">
        <rect x="410" y="1064" width="238.19536" height="78" style="fill:#e53e3e !important;stroke:#fc8181 !important;color:#fff !important"/>
        <text x="529.09768" y="1103" class="label" dominant-baseline="central" style="fill: #fff" text-anchor="middle"><tspan x="529.09768" y="1103" dy="-0.6em">Tmux DCS Passthrough</tspan><tspan x="529.09768" dy="1.2em">(doubled ESC sequences)</tspan></text>
      </g>
      <g class="node default" id="node-P5">
        <rect x="425.18751199999997" y="1217" width="207.820336" height="78" style="fill:#e53e3e !important;stroke:#fc8181 !important;color:#fff !important"/>
        <text x="529.09768" y="1256" class="label" dominant-baseline="central" text-anchor="middle" style="fill: #fff"><tspan x="529.09768" y="1256" dy="-0.6em">Re-render All Images</tspan><tspan x="529.09768" dy="1.2em">at New Coords</tspan></text>
      </g>
      <g class="node default" id="node-S1">
        <rect x="58.3828" y="581" width="223.2344" height="78" style="fill:#38a169 !important;stroke:#9ae6b4 !important;color:#fff !important"/>
        <text x="170" y="620" class="label" style="fill: #fff" text-anchor="middle" dominant-baseline="central"><tspan x="170" y="620" dy="-0.6em">User Sees Placeholder</tspan><tspan x="170" dy="1.2em">(text-based reference)</tspan></text>
      </g>
      <g class="node default" id="node-S2">
        <rect x="50.789047999999994" y="746" width="238.421904" height="54" style="fill:#38a169 !important;stroke:#9ae6b4 !important;color:#fff !important"/>
        <text x="170" y="773" class="label" dominant-baseline="central" style="fill: #fff" text-anchor="middle">User Presses &apos;s&apos; + Number</text>
      </g>
      <g class="node default" id="node-S3">
        <rect x="40" y="887" width="260" height="102" style="fill:#38a169 !important;stroke:#9ae6b4 !important;color:#fff !important"/>
        <text x="170" y="938" class="label" style="fill: #fff" dominant-baseline="central" text-anchor="middle"><tspan x="170" y="938" dy="-1.2em">Open Image Fullscreen</tspan><tspan x="170" dy="1.2em">(separate rendering</tspan><tspan x="170" dy="1.2em">context)</tspan></text>
      </g>
    </g>
  </g>
</svg>
