<?xml version="1.0" encoding="UTF-8"?>
<svg xmlns="http://www.w3.org/2000/svg" width="657.375072" height="836" viewBox="-8 -28 657.375072 836" class="mermaid">
  <style>

.mermaid {
  font-family: trebuchet ms, verdana, arial, sans-serif;
  font-size: 16px;
}

.node rect,
.node polygon,
.node circle,
.node ellipse,
.node path {
  fill: #ECECFF;
  stroke: #9370DB;
  stroke-width: 1px;
}

.node line {
  stroke: #9370DB;
  stroke-width: 1px;
}

.node .label {
  fill: #333333;
}

.node text {
  fill: #333333;
  font-family: trebuchet ms, verdana, arial, sans-serif;
  font-size: 16px;
}

.edge-path {
  fill: none;
  stroke: #333333;
  stroke-width: 1px;
}

.edge-label {
  fill: #333333;
  font-family: trebuchet ms, verdana, arial, sans-serif;
}

.edge-label-bg {
  fill: rgba(232, 232, 232, 0.8);
}

.subgraph {
  fill: #ffffde;
  stroke: #aaaa33;
  stroke-width: 1px;
}

.subgraph-title {
  fill: #333333;
  font-weight: bold;
}

.cluster rect {
  fill: #ffffde;
  stroke: #aaaa33;
  stroke-width: 1px;
  rx: 5px;
  ry: 5px;
}

.cluster-label {
  fill: #333333;
  font-family: trebuchet ms, verdana, arial, sans-serif;
  font-size: 16px;
  font-weight: bold;
}

marker path {
  fill: #333333;
  stroke: #333333;
}

  </style>
  <defs>
    <marker id="arrow_point" viewBox="0 0 10 10" refX="10" refY="5" markerWidth="8" markerHeight="8" orient="auto" markerUnits="userSpaceOnUse">
      <path d="M 0 0 L 10 5 L 0 10 z"/>
    </marker>
    <marker id="arrow_point_start" viewBox="0 0 10 10" refX="4.5" refY="5" markerWidth="8" markerHeight="8" orient="auto" markerUnits="userSpaceOnUse">
      <path d="M 0 5 L 10 10 L 10 0 z"/>
    </marker>
    <marker id="arrow_cross" viewBox="0 0 11 11" refX="12" refY="5.2" markerWidth="11" markerHeight="11" orient="auto" markerUnits="userSpaceOnUse">
      <path d="M 1 1 L 10 10 M 10 1 L 1 10" fill="none" stroke-width="2"/>
    </marker>
    <marker id="arrow_cross_start" viewBox="0 0 11 11" refX="-1" refY="5.2" markerWidth="11" markerHeight="11" orient="auto" markerUnits="userSpaceOnUse">
      <path d="M 1 1 L 10 10 M 10 1 L 1 10" fill="none" stroke-width="2"/>
    </marker>
    <marker id="arrow_circle" viewBox="0 0 10 10" refX="11" refY="5" markerWidth="11" markerHeight="11" orient="auto" markerUnits="userSpaceOnUse">
      <circle cx="5" cy="5" r="5"/>
    </marker>
    <marker id="arrow_circle_start" viewBox="0 0 10 10" refX="-1" refY="5" markerWidth="11" markerHeight="11" orient="auto" markerUnits="userSpaceOnUse">
      <circle cx="5" cy="5" r="5"/>
    </marker>
  </defs>
  <g class="root">
    <g class="clusters">
      <g class="subgraph" id="subgraph-">
        <rect x="20.00000000000003" y="-20" width="299.437552" height="815" class="cluster"/>
        <text x="169.71877600000002" y="-4" class="cluster-label" text-anchor="middle"></text>
      </g>
      <g class="subgraph" id="subgraph-">
        <rect x="329.4375520000001" y="-20" width="291.93751999999995" height="815" class="cluster"/>
        <text x="475.40631200000007" y="-4" class="cluster-label" text-anchor="middle"></text>
      </g>
    </g>
    <g class="edgePaths">
      <g class="edge" id="edge-L-A1-B1-0">
        <path d="M 169.72 79.00 C 169.72 87.33, 169.72 95.67, 169.72 104.00 C 169.72 112.33, 169.72 120.67, 169.72 129.00" class="edge-path" marker-end="url(#arrow_point)" fill="none" stroke-width="1"/>
      </g>
      <g class="edge" id="edge-L-B1-C1-0">
        <path d="M 169.72 183.00 C 169.72 191.33, 169.72 199.67, 169.72 208.00 C 169.72 216.33, 169.72 224.67, 169.72 233.00" class="edge-path" stroke-width="1" marker-end="url(#arrow_point)" fill="none"/>
      </g>
      <g class="edge" id="edge-L-C1-D1-0">
        <path d="M 169.72 287.00 C 169.72 295.33, 169.72 303.67, 169.72 312.00 C 169.72 320.33, 169.72 328.67, 169.72 337.00" class="edge-path" stroke-width="1" fill="none" marker-end="url(#arrow_point)"/>
      </g>
      <g class="edge" id="edge-L-D1-E1-0">
        <path d="M 169.72 391.00 C 169.72 399.33, 169.72 407.67, 169.72 418.00 C 169.72 428.33, 169.72 440.67, 169.72 453.00" class="edge-path" marker-end="url(#arrow_point)" stroke-width="1" fill="none"/>
      </g>
      <g class="edge" id="edge-L-E1-F1-0">
        <path d="M 169.72 507.00 C 169.72 519.33, 169.72 531.67, 169.72 542.00 C 169.72 552.33, 169.72 560.67, 169.72 569.00" class="edge-path" stroke-width="1" fill="none" marker-end="url(#arrow_point)"/>
      </g>
      <g class="edge" id="edge-L-F1-G1-0">
        <path d="M 169.72 647.00 C 169.72 655.33, 169.72 663.67, 169.72 672.00 C 169.72 680.33, 169.72 688.67, 169.72 697.00" class="edge-path" marker-end="url(#arrow_point)" fill="none" stroke-dasharray="3,3" stroke-width="2"/>
      </g>
      <g class="edge" id="edge-L-A2-B2-0">
        <path d="M 475.41 79.00 C 475.41 87.33, 475.41 95.67, 475.41 104.00 C 475.41 112.33, 475.41 120.67, 475.41 129.00" class="edge-path" stroke-width="1" fill="none" marker-end="url(#arrow_point)"/>
      </g>
      <g class="edge" id="edge-L-B2-C2-0">
        <path d="M 475.41 183.00 C 475.41 191.33, 475.41 199.67, 475.41 208.00 C 475.41 216.33, 475.41 224.67, 475.41 233.00" class="edge-path" fill="none" stroke-width="1" marker-end="url(#arrow_point)"/>
      </g>
      <g class="edge" id="edge-L-C2-D2-0">
        <path d="M 475.41 287.00 C 475.41 295.33, 475.41 303.67, 475.41 312.00 C 475.41 320.33, 475.41 328.67, 475.41 337.00" class="edge-path" stroke-width="1" marker-end="url(#arrow_point)" fill="none"/>
      </g>
      <g class="edge" id="edge-L-D2-E2-0">
        <path d="M 475.41 391.00 C 475.41 399.33, 475.41 407.67, 475.41 416.00 C 475.41 424.33, 475.41 432.67, 475.41 441.00" class="edge-path" fill="none" stroke-width="1" marker-end="url(#arrow_point)"/>
      </g>
      <g class="edge" id="edge-L-E2-F2-0">
        <path d="M 475.41 519.00 C 475.41 527.33, 475.41 535.67, 475.41 544.00 C 475.41 552.33, 475.41 560.67, 475.41 569.00" class="edge-path" stroke-width="1" marker-end="url(#arrow_point)" fill="none"/>
      </g>
      <g class="edge" id="edge-L-F2-G2-0">
        <path d="M 475.41 647.00 C 475.41 655.33, 475.41 663.67, 475.41 672.00 C 475.41 680.33, 475.41 688.67, 475.41 697.00" class="edge-path" stroke-width="2" marker-end="url(#arrow_point)" stroke-dasharray="3,3" fill="none"/>
      </g>
    </g>
    <g class="edgeLabels">

    </g>
    <g class="nodes">
      <g class="node" id="node-A1">
        <rect x="81.68752800000001" y="25" width="176.062496" height="54"/>
        <text x="169.71877600000002" y="52" class="label" text-anchor="middle" dominant-baseline="central">render_message</text>
      </g>
      <g class="node" id="node-A2">
        <rect x="387.37506400000007" y="25" width="176.062496" height="54"/>
        <text x="475.40631200000007" y="52" class="label" text-anchor="middle" dominant-baseline="central">render_message</text>
      </g>
      <g class="node" id="node-B1">
        <rect x="103.75393600000002" y="129" width="131.92968" height="54"/>
        <text x="169.71877600000002" y="156" class="label" text-anchor="middle" dominant-baseline="central">Vec&amp;lt;Line&amp;gt;</text>
      </g>
      <g class="node" id="node-B2">
        <rect x="409.4414720000001" y="129" width="131.92968" height="54"/>
        <text x="475.40631200000007" y="156" class="label" text-anchor="middle" dominant-baseline="central">Vec&amp;lt;Line&amp;gt;</text>
      </g>
      <g class="node" id="node-C1">
        <rect x="85.61329600000002" y="233" width="168.21096" height="54"/>
        <text x="169.71877600000002" y="260" class="label" text-anchor="middle" dominant-baseline="central">flat_map spans</text>
      </g>
      <g class="node" id="node-C2">
        <rect x="384.01177600000005" y="233" width="182.789072" height="54"/>
        <text x="475.40631200000007" y="260" class="label" text-anchor="middle" dominant-baseline="central">Iterate each Line</text>
      </g>
      <g class="node" id="node-D1">
        <rect x="95.18360800000002" y="337" width="149.070336" height="54"/>
        <text x="169.71877600000002" y="364" class="label" text-anchor="middle" dominant-baseline="central">join with \\n</text>
      </g>
      <g class="node" id="node-D2">
        <rect x="383.96879200000006" y="337" width="182.87504" height="54"/>
        <text x="475.40631200000007" y="364" class="label" text-anchor="middle" dominant-baseline="central">Check Line.spans</text>
      </g>
      <g class="node" id="node-E1">
        <rect x="95.27346400000002" y="453" width="148.890624" height="54"/>
        <text x="169.71877600000002" y="480" class="label" text-anchor="middle" dominant-baseline="central">Single String</text>
      </g>
      <g class="node" id="node-E2">
        <rect x="388.7188080000001" y="441" width="173.375008" height="78"/>
        <text x="475.40631200000007" y="480" class="label" dominant-baseline="central" text-anchor="middle"><tspan x="475.40631200000007" y="480" dy="-0.6em">Verify first span</tspan><tspan x="475.40631200000007" dy="1.2em">is indent</tspan></text>
      </g>
      <g class="node" id="node-F1">
        <rect x="78.35940000000002" y="569" width="182.718752" height="78"/>
        <text x="169.71877600000002" y="608" class="label" text-anchor="middle" dominant-baseline="central"><tspan x="169.71877600000002" y="608" dy="-0.6em">.contains</tspan><tspan x="169.71877600000002" dy="1.2em">indent+separator</tspan></text>
      </g>
      <g class="node" id="node-F2">
        <rect x="377.03131200000007" y="569" width="196.74999999999997" height="78"/>
        <text x="475.40631200000007" y="608" class="label" text-anchor="middle" dominant-baseline="central"><tspan x="475.40631200000007" y="608" dy="-0.6em">Assert indent.len</tspan><tspan x="475.40631200000007" dy="1.2em">== expected_width</tspan></text>
      </g>
      <g class="node" id="node-G1">
        <rect x="40.00000000000003" y="697" width="259.437552" height="78" style="fill:#faa !important;stroke:#f00 !important"/>
        <text x="169.71877600000002" y="736" class="label" style="fill: #000000" text-anchor="middle" dominant-baseline="central"><tspan x="169.71877600000002" y="736" dy="-0.6em">Problem: Can&apos;t verify</tspan><tspan x="169.71877600000002" dy="1.2em">which line has which indent</tspan></text>
      </g>
      <g class="node" id="node-G2">
        <rect x="349.4375520000001" y="697" width="251.93752" height="78" style="fill:#afa !important;stroke:#0f0 !important"/>
        <text x="475.40631200000007" y="736" class="label" text-anchor="middle" dominant-baseline="central" style="fill: #000000"><tspan x="475.40631200000007" y="736" dy="-0.6em">Catches: separator correct</tspan><tspan x="475.40631200000007" dy="1.2em">but ASCII art wrong indent</tspan></text>
      </g>
    </g>
  </g>
</svg>
