<?xml version="1.0" encoding="UTF-8"?>
<svg xmlns="http://www.w3.org/2000/svg" width="875.5625600000001" height="1582.148448" viewBox="-8 -8 875.5625600000001 1582.148448" class="mermaid">
  <style>
.mermaid{font-family:trebuchet ms, verdana, arial, sans-serif;font-size:16px;fill:#333333;}
.error-icon{fill:#552222;}
.error-text{fill:#552222;stroke:#552222;}
.edge-thickness-normal{stroke-width:1px;}
.edge-thickness-thick{stroke-width:3.5px;}
.edge-pattern-solid{stroke-dasharray:0;}
.edge-thickness-invisible{stroke-width:0;fill:none;}
.edge-pattern-dashed{stroke-dasharray:3;}
.edge-pattern-dotted{stroke-dasharray:2;}
.marker{fill:#333333;stroke:#333333;}
.marker.cross{stroke:#333333;}
svg{font-family:trebuchet ms, verdana, arial, sans-serif;font-size:16px;}
p{margin:0;}
.label{font-family:trebuchet ms, verdana, arial, sans-serif;color:#333333;}
.cluster-label text{fill:#333333;}
.cluster-label span{color:#333333;}
.cluster-label span p{background-color:transparent;}
.label text,span{fill:#333333;color:#333333;}
.node rect,.node circle,.node ellipse,.node polygon,.node path{fill:#ECECFF;stroke:#9370DB;stroke-width:1px;}
.rough-node .label text,.node .label text,.image-shape .label,.icon-shape .label{text-anchor:middle;}
.node .katex path{fill:#000;stroke:#000;stroke-width:1px;}
.rough-node .label,.node .label,.image-shape .label,.icon-shape .label{text-align:center;}
.node.clickable{cursor:pointer;}
.root .anchor path{fill:#333333!important;stroke-width:0;stroke:#333333;}
.arrowheadPath{fill:#333333;}
.edgePath .path{stroke:#333333;stroke-width:2.0px;}
.flowchart-link{stroke:#333333;fill:none;}
.edgeLabel{background-color:rgba(232, 232, 232, 0.8);text-align:center;}
.edgeLabel p{background-color:rgba(232, 232, 232, 0.8);}
.edgeLabel rect{opacity:0.5;background-color:rgba(232, 232, 232, 0.8);fill:rgba(232, 232, 232, 0.8);}
.labelBkg{background-color:rgba(232, 232, 232, 0.5);}
.cluster rect{fill:#ffffde;stroke:#aaaa33;stroke-width:1px;}
.cluster text{fill:#333333;}
.cluster span{color:#333333;}
.flowchartTitleText{text-anchor:middle;font-size:18px;fill:#333333;}
rect.text{fill:none;stroke-width:0;}

.problem rect { fill:#f99 !important; stroke:#900 !important; stroke-width:2px !important; }
.problem polygon { fill:#f99 !important; stroke:#900 !important; stroke-width:2px !important; }
.problem ellipse { fill:#f99 !important; stroke:#900 !important; stroke-width:2px !important; }
.problem circle { fill:#f99 !important; stroke:#900 !important; stroke-width:2px !important; }
.problem path { fill:#f99 !important; stroke:#900 !important; stroke-width:2px !important; }
  </style>
  <defs>
    <marker id="arrow_point" viewBox="0 0 10 10" refX="10" refY="5" markerWidth="8" markerHeight="8" orient="auto" markerUnits="userSpaceOnUse">
      <path d="M 0 0 L 10 5 L 0 10 z" class="marker"/>
    </marker>
    <marker id="arrow_point_start" viewBox="0 0 10 10" refX="4.5" refY="5" markerWidth="8" markerHeight="8" orient="auto" markerUnits="userSpaceOnUse">
      <path d="M 0 5 L 10 10 L 10 0 z" class="marker"/>
    </marker>
    <marker id="arrow_cross" viewBox="0 0 11 11" refX="12" refY="5.2" markerWidth="11" markerHeight="11" orient="auto" markerUnits="userSpaceOnUse">
      <path d="M 1 1 L 10 10 M 10 1 L 1 10" class="marker cross" fill="none" stroke-width="2"/>
    </marker>
    <marker id="arrow_cross_start" viewBox="0 0 11 11" refX="-1" refY="5.2" markerWidth="11" markerHeight="11" orient="auto" markerUnits="userSpaceOnUse">
      <path d="M 1 1 L 10 10 M 10 1 L 1 10" class="marker cross" fill="none" stroke-width="2"/>
    </marker>
    <marker id="arrow_circle" viewBox="0 0 10 10" refX="11" refY="5" markerWidth="11" markerHeight="11" orient="auto" markerUnits="userSpaceOnUse">
      <circle cx="5" cy="5" r="5" class="marker"/>
    </marker>
    <marker id="arrow_circle_start" viewBox="0 0 10 10" refX="-1" refY="5" markerWidth="11" markerHeight="11" orient="auto" markerUnits="userSpaceOnUse">
      <circle cx="5" cy="5" r="5" class="marker"/>
    </marker>
  </defs>
  <g class="root">
    <g class="clusters">
      <g class="cluster" id="subgraph-Problem">
        <rect x="282.17969600000004" y="698.148448" width="282.7969119999999" height="630.9999999999999" class="cluster"/>
        <text x="423.578152" y="714.148448" class="cluster-label" text-anchor="middle">Problem</text>
      </g>
    </g>
    <g class="edgePaths">
      <g class="edge" id="edge-L-A-B-0">
        <path d="M423.578152,54L423.578152,58.166666666666664C423.578152,62.333333333333336,423.578152,70.66666666666667,423.578152,78.33333333333333C423.578152,86,423.578152,93,423.578152,96.5L423.578152,100" class="edge-thickness-normal edge-pattern-solid edge-thickness-normal edge-pattern-solid flowchart-link" marker-end="url(#arrow_point)"/>
      </g>
      <g class="edge" id="edge-L-B-C-0">
        <path d="M423.578152,182L423.578152,186.16666666666666C423.578152,190.33333333333334,423.578152,198.66666666666666,423.578152,206.33333333333334C423.578152,214,423.578152,221,423.578152,224.5L423.578152,228" class="edge-thickness-normal edge-pattern-solid edge-thickness-normal edge-pattern-solid flowchart-link" marker-end="url(#arrow_point)"/>
      </g>
      <g class="edge" id="edge-L-C-D-0">
        <path d="M423.578152,310L423.578152,314.1666666666667C423.578152,318.3333333333333,423.578152,326.6666666666667,423.578152,334.3333333333333C423.578152,342,423.578152,349,423.578152,352.5L423.578152,356" class="edge-thickness-normal edge-pattern-solid edge-thickness-normal edge-pattern-solid flowchart-link" marker-end="url(#arrow_point)"/>
      </g>
      <g class="edge" id="edge-L-D-E-0">
        <path d="M423.578152,414L423.578152,418.1666666666667C423.578152,422.3333333333333,423.578152,430.6666666666667,423.578152,438.3333333333333C423.578152,446,423.578152,453,423.578152,456.5L423.578152,459.99999999999994" class="edge-thickness-normal edge-pattern-solid edge-thickness-normal edge-pattern-solid flowchart-link" marker-end="url(#arrow_point)"/>
      </g>
      <g class="edge" id="edge-L-E-F-0">
        <path d="M423.578152,644.1484479999999L423.578152,650.3151146666665C423.578152,656.4817813333333,423.578152,668.8151146666667,423.578152,681.148448C423.578152,693.4817813333334,423.578152,705.8151146666668,423.578152,715.4817813333334C423.578152,725.148448,423.578152,732.148448,423.578152,735.648448L423.578152,739.148448" class="edge-thickness-normal edge-pattern-solid edge-thickness-normal edge-pattern-solid flowchart-link" marker-end="url(#arrow_point)"/>
      </g>
      <g class="edge" id="edge-L-F-G-0">
        <path d="M423.578152,821.148448L423.578152,825.3151146666668C423.578152,829.4817813333334,423.578152,837.8151146666668,390.6648523119798,848.7226774023053C357.7515526239597,859.6302401379438,291.92495324791935,873.1120322758875,259.0116535598992,879.8529283448594L226.09835387187903,886.5938244138313" class="edge-thickness-normal edge-pattern-solid edge-thickness-normal edge-pattern-solid flowchart-link" marker-end="url(#arrow_point)"/>
      </g>
      <g class="edge" id="edge-L-G-H-0">
        <path d="M222.17969599999992,932.9005004160163L255.74610533333328,939.7751583466802C289.31251466666663,946.6498162773441,356.4453333333333,960.399132138672,390.01174266666663,970.7737900693361C423.578152,981.1484479999999,423.578152,988.1484479999999,423.578152,991.6484479999999L423.578152,995.1484479999999" class="edge-thickness-normal edge-pattern-solid edge-thickness-normal edge-pattern-solid flowchart-link" marker-end="url(#arrow_point)"/>
      </g>
      <g class="edge" id="edge-L-H-I-0">
        <path d="M423.578152,1077.148448L423.578152,1081.3151146666667C423.578152,1085.4817813333332,423.578152,1093.8151146666667,456.4865958209971,1103.3513611427204C489.3950396419943,1112.8876076187742,555.2119272839885,1123.6267672375482,588.1203711049857,1128.9963470469354L621.0288149259828,1134.3659268563224" class="edge-thickness-normal edge-pattern-solid edge-thickness-normal edge-pattern-solid flowchart-link" marker-end="url(#arrow_point)"/>
      </g>
      <g class="edge" id="edge-L-I-J-0">
        <path d="M624.976608,1173.2868186606834L591.4101986666667,1178.7637568839027C557.8437893333333,1184.2406951071223,490.7109706666667,1195.194571553561,457.14456133333334,1204.1715097767803C423.578152,1213.148448,423.578152,1220.148448,423.578152,1223.648448L423.578152,1227.148448" class="edge-thickness-normal edge-pattern-solid edge-thickness-normal edge-pattern-solid flowchart-link" marker-end="url(#arrow_point)"/>
      </g>
      <g class="edge" id="edge-L-J-K-0">
        <path d="M423.578152,1309.148448L423.578152,1313.3151146666667C423.578152,1317.4817813333332,423.578152,1325.8151146666667,423.578152,1334.148448C423.578152,1342.4817813333332,423.578152,1350.8151146666667,423.578152,1358.4817813333332C423.578152,1366.148448,423.578152,1373.148448,423.578152,1376.648448L423.578152,1380.148448" class="edge-thickness-normal edge-pattern-solid edge-thickness-normal edge-pattern-solid flowchart-link" marker-end="url(#arrow_point)"/>
      </g>
      <g class="edge" id="edge-L-K-L-0">
        <path d="M423.578152,1462.148448L423.578152,1466.3151146666667C423.578152,1470.4817813333332,423.578152,1478.8151146666667,411.17715502578227,1486.9454788645055C398.77615805156466,1495.0758430623443,373.9741641031294,1503.0032381246886,361.57316712891173,1506.9669356558609L349.1721701546941,1510.9306331870332" class="edge-thickness-normal edge-pattern-solid edge-thickness-normal edge-pattern-solid flowchart-link" marker-end="url(#arrow_point)"/>
      </g>
      <g class="edge" id="edge-L-L-G-0">
        <path d="M183.10851915384615,1512.148448L171.10540729487175,1507.9817813333332C159.10229543589742,1503.8151146666667,135.0960717179487,1495.4817813333332,123.09295985897433,1480.648448C111.08984799999996,1465.8151146666667,111.08984799999996,1444.4817813333332,111.08984799999996,1423.148448C111.08984799999996,1401.8151146666667,111.08984799999996,1380.4817813333332,111.08984799999996,1365.648448C111.08984799999996,1350.8151146666667,111.08984799999996,1342.4817813333332,111.08984799999996,1327.648448C111.08984799999996,1312.8151146666667,111.08984799999996,1291.4817813333332,111.08984799999996,1270.148448C111.08984799999996,1248.8151146666667,111.08984799999996,1227.4817813333332,111.08984799999996,1208.148448C111.08984799999996,1188.8151146666667,111.08984799999996,1171.4817813333332,111.08984799999996,1154.148448C111.08984799999996,1136.8151146666667,111.08984799999996,1119.4817813333332,111.08984799999996,1100.148448C111.08984799999996,1080.8151146666667,111.08984799999996,1059.4817813333332,111.08984799999996,1038.148448C111.08984799999996,1016.8151146666665,111.08984799999996,995.4817813333333,111.08984799999996,981.3151146666665C111.08984799999996,967.148448,111.08984799999996,960.148448,111.08984799999996,956.648448L111.08984799999996,953.148448" class="edge-thickness-normal edge-pattern-solid edge-thickness-normal edge-pattern-solid flowchart-link" marker-end="url(#arrow_point)"/>
      </g>
    </g>
    <g class="edgeLabels">
      <g class="edgeLabel" id="edge-label-L-E-F-0">
        <rect x="412.378152" y="682.6484479999999" width="22.4" height="22" class="edge-label-bg"/>
        <text x="423.578152" y="693.6484479999999" class="edge-label" text-anchor="middle" dominant-baseline="central">No</text>
      </g>
    </g>
    <g class="nodes">
      <g class="node default" id="node-A">
        <rect x="288.83204" y="0" width="269.49222399999996" height="54"/>
        <text x="423.578152" y="27" class="label" text-anchor="middle" dominant-baseline="central">gather_orphan_cleanup_data</text>
      </g>
      <g class="node default" id="node-B">
        <rect x="287.839856" y="104" width="271.476592" height="78"/>
        <text x="423.578152" y="143" class="label" text-anchor="middle" dominant-baseline="central"><tspan x="423.578152" y="143" dy="-0.6em">cleanup_orphaned_worktrees</tspan><tspan x="423.578152" dy="1.2em">limit: Some2</tspan></text>
      </g>
      <g class="node default" id="node-C">
        <rect x="293.578152" y="232" width="260" height="78"/>
        <text x="423.578152" y="271" class="label" text-anchor="middle" dominant-baseline="central"><tspan x="423.578152" y="271" dy="-0.6em">unmerged: Vec of 2</tspan><tspan x="423.578152" dy="1.2em">worktrees</tspan></text>
      </g>
      <g class="node default" id="node-D">
        <rect x="243.35156000000003" y="360" width="360.4531839999999" height="54"/>
        <text x="423.578152" y="387" class="label" text-anchor="middle" dominant-baseline="central">OrphanTracker::prune&amp;unmerged</text>
      </g>
      <g class="node default" id="node-E">
        <polygon points="423.578152,463.99999999999994 513.652376,554.074224 423.578152,644.1484479999999 333.503928,554.074224"/>
        <text x="423.578152" y="554.074224" class="label" text-anchor="middle" dominant-baseline="central"><tspan x="423.578152" y="554.074224" dy="-0.6em">Is worktree #3</tspan><tspan x="423.578152" dy="1.2em">in unmerged?</tspan></text>
      </g>
      <g class="node default" id="node-F">
        <rect x="311.90626399999996" y="743.148448" width="223.34377600000002" height="78" style="fill:#f99 !important"/>
        <text x="423.578152" y="782.148448" class="label" text-anchor="middle" dominant-baseline="central"><tspan x="423.578152" y="782.148448" dy="-0.6em">Entry for worktree #3</tspan><tspan x="423.578152" dy="1.2em">REMOVED from tracker</tspan></text>
      </g>
      <g class="node default" id="node-G">
        <rect x="-0.00000000000004263256414560601" y="871.148448" width="222.179696" height="78"/>
        <text x="111.08984799999996" y="910.148448" class="label" text-anchor="middle" dominant-baseline="central"><tspan x="111.08984799999996" y="910.148448" dy="-0.6em">Next tick:</tspan><tspan x="111.08984799999996" dy="1.2em">worktree #3 processed</tspan></text>
      </g>
      <g class="node default" id="node-H">
        <rect x="302.17969600000004" y="999.1484479999999" width="242.79691199999996" height="78" style="fill:#f99 !important"/>
        <text x="423.57815200000005" y="1038.148448" class="label" text-anchor="middle" dominant-baseline="central"><tspan x="423.57815200000005" y="1038.148448" dy="-0.6em">Re-tracked with</tspan><tspan x="423.57815200000005" dy="1.2em">warned_at: None</tspan></text>
      </g>
      <g class="node default" id="node-I">
        <rect x="624.976608" y="1127.148448" width="234.585952" height="54"/>
        <text x="742.269584" y="1154.148448" class="label" text-anchor="middle" dominant-baseline="central">60s grace period expires</text>
      </g>
      <g class="node default" id="node-J">
        <rect x="315.070328" y="1231.148448" width="217.015648" height="78" style="fill:#f99 !important"/>
        <text x="423.57815200000005" y="1270.148448" class="label" text-anchor="middle" dominant-baseline="central"><tspan x="423.57815200000005" y="1270.148448" dy="-0.6em">Warn AGAIN</tspan><tspan x="423.57815200000005" dy="1.2em">bypasses 1h cooldown</tspan></text>
      </g>
      <g class="node default" id="node-K">
        <rect x="324.121112" y="1384.148448" width="198.91407999999998" height="78"/>
        <text x="423.578152" y="1423.148448" class="label" text-anchor="middle" dominant-baseline="central"><tspan x="423.578152" y="1423.148448" dy="-0.6em">Tick after that:</tspan><tspan x="423.578152" dy="1.2em">limit reached again</tspan></text>
      </g>
      <g class="node default" id="node-L">
        <rect x="156.50977200000003" y="1512.148448" width="208.75782399999997" height="54"/>
        <text x="260.888684" y="1539.148448" class="label" text-anchor="middle" dominant-baseline="central">prune removes entry</text>
      </g>
    </g>
  </g>
</svg>
