<?xml version="1.0" encoding="UTF-8"?>
<svg xmlns="http://www.w3.org/2000/svg" width="2777.9688960000003" height="292" viewBox="-8 -8 2777.9688960000003 292" class="mermaid">
  <style>
.mermaid{font-family:trebuchet ms, verdana, arial, sans-serif;font-size:16px;fill:#333333;}
.error-icon{fill:#552222;}
.error-text{fill:#552222;stroke:#552222;}
.edge-thickness-normal{stroke-width:1px;}
.edge-thickness-thick{stroke-width:3.5px;}
.edge-pattern-solid{stroke-dasharray:0;}
.edge-thickness-invisible{stroke-width:0;fill:none;}
.edge-pattern-dashed{stroke-dasharray:3;}
.edge-pattern-dotted{stroke-dasharray:2;}
.marker{fill:#333333;stroke:#333333;}
.marker.cross{stroke:#333333;}
svg{font-family:trebuchet ms, verdana, arial, sans-serif;font-size:16px;}
p{margin:0;}
.label{font-family:trebuchet ms, verdana, arial, sans-serif;color:#333333;}
.cluster-label text{fill:#333333;}
.cluster-label span{color:#333333;}
.cluster-label span p{background-color:transparent;}
.label text,span{fill:#333333;color:#333333;}
.node rect,.node circle,.node ellipse,.node polygon,.node path{fill:#ECECFF;stroke:#9370DB;stroke-width:1px;}
.rough-node .label text,.node .label text,.image-shape .label,.icon-shape .label{text-anchor:middle;}
.node .katex path{fill:#000;stroke:#000;stroke-width:1px;}
.rough-node .label,.node .label,.image-shape .label,.icon-shape .label{text-align:center;}
.node.clickable{cursor:pointer;}
.root .anchor path{fill:#333333!important;stroke-width:0;stroke:#333333;}
.arrowheadPath{fill:#333333;}
.edgePath .path{stroke:#333333;stroke-width:2.0px;}
.flowchart-link{stroke:#333333;fill:none;}
.edgeLabel{background-color:rgba(232, 232, 232, 0.8);text-align:center;}
.edgeLabel p{background-color:rgba(232, 232, 232, 0.8);}
.edgeLabel rect{opacity:0.5;background-color:rgba(232, 232, 232, 0.8);fill:rgba(232, 232, 232, 0.8);}
.labelBkg{background-color:rgba(232, 232, 232, 0.5);}
.cluster rect{fill:#ffffde;stroke:#aaaa33;stroke-width:1px;}
.cluster text{fill:#333333;}
.cluster span{color:#333333;}
.flowchartTitleText{text-anchor:middle;font-size:18px;fill:#333333;}
rect.text{fill:none;stroke-width:0;}

  </style>
  <defs>
    <marker id="arrow_point" viewBox="0 0 10 10" refX="10" refY="5" markerWidth="8" markerHeight="8" orient="auto" markerUnits="userSpaceOnUse">
      <path d="M 0 0 L 10 5 L 0 10 z" class="marker"/>
    </marker>
    <marker id="arrow_point_start" viewBox="0 0 10 10" refX="4.5" refY="5" markerWidth="8" markerHeight="8" orient="auto" markerUnits="userSpaceOnUse">
      <path d="M 0 5 L 10 10 L 10 0 z" class="marker"/>
    </marker>
    <marker id="arrow_cross" viewBox="0 0 11 11" refX="12" refY="5.2" markerWidth="11" markerHeight="11" orient="auto" markerUnits="userSpaceOnUse">
      <path d="M 1 1 L 10 10 M 10 1 L 1 10" class="marker cross" fill="none" stroke-width="2"/>
    </marker>
    <marker id="arrow_cross_start" viewBox="0 0 11 11" refX="-1" refY="5.2" markerWidth="11" markerHeight="11" orient="auto" markerUnits="userSpaceOnUse">
      <path d="M 1 1 L 10 10 M 10 1 L 1 10" class="marker cross" fill="none" stroke-width="2"/>
    </marker>
    <marker id="arrow_circle" viewBox="0 0 10 10" refX="11" refY="5" markerWidth="11" markerHeight="11" orient="auto" markerUnits="userSpaceOnUse">
      <circle cx="5" cy="5" r="5" class="marker"/>
    </marker>
    <marker id="arrow_circle_start" viewBox="0 0 10 10" refX="-1" refY="5" markerWidth="11" markerHeight="11" orient="auto" markerUnits="userSpaceOnUse">
      <circle cx="5" cy="5" r="5" class="marker"/>
    </marker>
  </defs>
  <g class="root">
    <g class="clusters">
      <g class="cluster" id="subgraph-subGraph0">
        <rect x="1138.2735200000002" y="52" width="1623.695376" height="172" class="cluster"/>
        <text x="1950.121208" y="68" class="cluster-label" text-anchor="middle">Current Architecture</text>
      </g>
      <g class="cluster" id="subgraph-subGraph1">
        <rect x="0" y="0" width="1088.27352" height="276" class="cluster"/>
        <text x="544.13676" y="16" class="cluster-label" text-anchor="middle">New Architecture</text>
      </g>
    </g>
    <g class="edgePaths">
      <g class="edge" id="edge-L-A1-B1-0">
        <path d="M1349.9454080000003,138L1356.1954080000003,138C1362.4454080000003,138,1374.9454080000003,138,1386.7787413333335,138C1398.6120746666668,138,1409.7787413333335,138,1415.3620746666668,138L1420.945408,138" class="edge-thickness-normal edge-pattern-solid edge-thickness-normal edge-pattern-solid flowchart-link" marker-end="url(#arrow_point)"/>
      </g>
      <g class="edge" id="edge-L-B1-C1-0">
        <path d="M1682.6407520000002,138L1688.890752,138C1695.1407520000002,138,1707.6407520000002,138,1719.4740853333333,138C1731.307418666667,138,1742.4740853333335,138,1748.0574186666665,138L1753.6407520000002,138" class="edge-thickness-normal edge-pattern-solid edge-thickness-normal edge-pattern-solid flowchart-link" marker-end="url(#arrow_point)"/>
      </g>
      <g class="edge" id="edge-L-C1-D1-0">
        <path d="M1891.9688800000004,138L1898.2188800000004,138C1904.4688800000004,138,1916.9688800000004,138,1928.8022133333336,138C1940.6355466666666,138,1951.8022133333334,138,1957.3855466666666,138L1962.9688800000001,138" class="edge-thickness-normal edge-pattern-solid edge-thickness-normal edge-pattern-solid flowchart-link" marker-end="url(#arrow_point)"/>
      </g>
      <g class="edge" id="edge-L-D1-E1-0">
        <path d="M2226.9688800000004,138L2233.2188800000004,138C2239.4688800000004,138,2251.9688800000004,138,2263.802213333334,138C2275.635546666667,138,2286.802213333334,138,2292.385546666667,138L2297.9688800000004,138" class="edge-thickness-normal edge-pattern-solid edge-thickness-normal edge-pattern-solid flowchart-link" marker-end="url(#arrow_point)"/>
      </g>
      <g class="edge" id="edge-L-E1-F1-0">
        <path d="M2435.0938880000003,138L2441.343888,138C2447.5938880000003,138,2460.0938880000003,138,2471.9272213333334,138C2483.760554666667,138,2494.927221333334,138,2500.510554666667,138L2506.0938880000003,138" class="edge-thickness-normal edge-pattern-solid edge-thickness-normal edge-pattern-solid flowchart-link" marker-end="url(#arrow_point)"/>
      </g>
      <g class="edge" id="edge-L-A2-B2-0">
        <path d="M211.671888,138L217.921888,138C224.171888,138,236.671888,138,248.50522133333334,138C260.33855466666665,138,271.5052213333333,138,277.08855466666665,138L282.67188799999997,138" class="edge-thickness-normal edge-pattern-solid edge-thickness-normal edge-pattern-solid flowchart-link" marker-end="url(#arrow_point)"/>
      </g>
      <g class="edge" id="edge-L-B2-C2-0">
        <path d="M454.448931,99L462.7530185,94.83333333333333C471.05710600000003,90.66666666666667,487.66528100000005,82.33333333333333,507.1445031666667,78.16666666666667C526.6237253333334,74,548.9739946666667,74,560.1491293333333,74L571.3242640000001,74" class="edge-thickness-normal edge-pattern-solid edge-thickness-normal edge-pattern-solid flowchart-link" marker-end="url(#arrow_point)"/>
      </g>
      <g class="edge" id="edge-L-B2-C3-0">
        <path d="M454.448931,177L462.7530185,181.16666666666666C471.05710600000003,185.33333333333334,487.66528100000005,193.66666666666666,501.5527018333334,197.83333333333334C515.4401226666668,202,526.6067893333334,202,532.1901226666668,202L537.7734560000001,202" class="edge-thickness-normal edge-pattern-solid edge-thickness-normal edge-pattern-solid flowchart-link" marker-end="url(#arrow_point)"/>
      </g>
      <g class="edge" id="edge-L-C2-D2-0">
        <path d="M720.691448,74L732.5332493333334,74C744.3750506666667,74,768.0586533333334,74,791.244204,74C814.4297546666667,74,837.1172533333333,74,848.4610026666666,74L859.804752,74" class="edge-thickness-normal edge-pattern-solid edge-thickness-normal edge-pattern-solid flowchart-link" marker-end="url(#arrow_point)"/>
      </g>
      <g class="edge" id="edge-L-C3-D3-0">
        <path d="M754.2422560000001,202L760.4922560000001,202C766.7422560000001,202,779.242256,202,791.0755893333334,202C802.9089226666666,202,814.0755893333334,202,819.6589226666666,202L825.242256,202" class="edge-thickness-normal edge-pattern-solid edge-thickness-normal edge-pattern-solid flowchart-link" marker-end="url(#arrow_point)"/>
      </g>
    </g>
    <g class="edgeLabels">

    </g>
    <g class="nodes">
      <g class="node default" id="node-A1">
        <rect x="1175.7735200000002" y="111" width="174.171888" height="54"/>
        <text x="1262.8594640000001" y="138" class="label" text-anchor="middle" dominant-baseline="central">Mermaid Source</text>
      </g>
      <g class="node default" id="node-B1">
        <rect x="1424.945408" y="111" width="257.695344" height="54"/>
        <text x="1553.79308" y="138" class="label" text-anchor="middle" dominant-baseline="central">selkie::render::render_text</text>
      </g>
      <g class="node default" id="node-C1">
        <rect x="1757.6407520000002" y="111" width="134.32812800000002" height="54"/>
        <text x="1824.8048160000003" y="138" class="label" text-anchor="middle" dominant-baseline="central">SVG String</text>
      </g>
      <g class="node default" id="node-D1">
        <rect x="1966.9688800000001" y="87" width="260" height="102" style="fill:#a44 !important;stroke:#822 !important"/>
        <text x="2096.9688800000004" y="138" class="label" text-anchor="middle" dominant-baseline="central"><tspan x="2096.9688800000004" y="138" dy="-1.5em">svg_to_png</tspan><tspan x="2096.9688800000004" dy="1.5em">resvg + usvg + tiny-skia +</tspan><tspan x="2096.9688800000004" dy="1.5em">fontdb</tspan></text>
      </g>
      <g class="node default" id="node-E1">
        <rect x="2301.9688800000004" y="111" width="133.125008" height="54"/>
        <text x="2368.5313840000003" y="138" class="label" text-anchor="middle" dominant-baseline="central">PNG bytes</text>
      </g>
      <g class="node default" id="node-F1">
        <rect x="2510.0938880000003" y="111" width="214.375008" height="54"/>
        <text x="2617.2813920000003" y="138" class="label" text-anchor="middle" dominant-baseline="central">Kitty terminal display</text>
      </g>
      <g class="node default" id="node-A2">
        <rect x="37.5" y="111" width="174.171888" height="54"/>
        <text x="124.585944" y="138" class="label" text-anchor="middle" dominant-baseline="central">Mermaid Source</text>
      </g>
      <g class="node default" id="node-B2">
        <rect x="286.67188799999997" y="99" width="180.10156800000001" height="78" style="fill:#4a4 !important;stroke:#282 !important"/>
        <text x="376.722672" y="138" class="label" text-anchor="middle" dominant-baseline="central"><tspan x="376.722672" y="138" dy="-0.75em">selkie parser</tspan><tspan x="376.722672" dy="1.5em">single parse step</tspan></text>
      </g>
      <g class="node default" id="node-C2">
        <rect x="575.3242640000001" y="35" width="145.367184" height="78"/>
        <text x="648.0078560000001" y="74" class="label" text-anchor="middle" dominant-baseline="central"><tspan x="648.0078560000001" y="74" dy="-0.75em">render_text</tspan><tspan x="648.0078560000001" dy="1.5em">SVG output</tspan></text>
      </g>
      <g class="node default" id="node-C3">
        <rect x="541.7734560000001" y="163" width="212.46880000000002" height="78"/>
        <text x="648.0078560000002" y="202" class="label" text-anchor="middle" dominant-baseline="central"><tspan x="648.0078560000002" y="202" dy="-0.75em">render_text_ascii</tspan><tspan x="648.0078560000002" dy="1.5em">box-drawing + braille</tspan></text>
      </g>
      <g class="node default" id="node-D2">
        <rect x="863.804752" y="47" width="152.406272" height="54"/>
        <text x="940.007888" y="74" class="label" text-anchor="middle" dominant-baseline="central">Web browser</text>
      </g>
      <g class="node default" id="node-D3">
        <rect x="829.242256" y="175" width="221.531264" height="54"/>
        <text x="940.007888" y="202" class="label" text-anchor="middle" dominant-baseline="central">Terminal inline display</text>
      </g>
    </g>
  </g>
</svg>
