<?xml version="1.0" encoding="UTF-8"?>
<svg xmlns="http://www.w3.org/2000/svg" width="1361.029032" height="588.010184" viewBox="-8 -8 1361.029032 588.010184" class="mermaid">
  <style>
.mermaid{font-family:trebuchet ms, verdana, arial, sans-serif;font-size:16px;fill:#333333;}
.error-icon{fill:#552222;}
.error-text{fill:#552222;stroke:#552222;}
.edge-thickness-normal{stroke-width:1px;}
.edge-thickness-thick{stroke-width:3.5px;}
.edge-pattern-solid{stroke-dasharray:0;}
.edge-thickness-invisible{stroke-width:0;fill:none;}
.edge-pattern-dashed{stroke-dasharray:3;}
.edge-pattern-dotted{stroke-dasharray:2;}
.marker{fill:#333333;stroke:#333333;}
.marker.cross{stroke:#333333;}
svg{font-family:trebuchet ms, verdana, arial, sans-serif;font-size:16px;}
p{margin:0;}
.label{font-family:trebuchet ms, verdana, arial, sans-serif;color:#333333;}
.cluster-label text{fill:#333333;}
.cluster-label span{color:#333333;}
.cluster-label span p{background-color:transparent;}
.label text,span{fill:#333333;color:#333333;}
.node rect,.node circle,.node ellipse,.node polygon,.node path{fill:#ECECFF;stroke:#9370DB;stroke-width:1px;}
.rough-node .label text,.node .label text,.image-shape .label,.icon-shape .label{text-anchor:middle;}
.node .katex path{fill:#000;stroke:#000;stroke-width:1px;}
.rough-node .label,.node .label,.image-shape .label,.icon-shape .label{text-align:center;}
.node.clickable{cursor:pointer;}
.root .anchor path{fill:#333333!important;stroke-width:0;stroke:#333333;}
.arrowheadPath{fill:#333333;}
.edgePath .path{stroke:#333333;stroke-width:2.0px;}
.flowchart-link{stroke:#333333;fill:none;}
.edgeLabel{background-color:rgba(232, 232, 232, 0.8);text-align:center;}
.edgeLabel p{background-color:rgba(232, 232, 232, 0.8);}
.edgeLabel rect{opacity:0.5;background-color:rgba(232, 232, 232, 0.8);fill:rgba(232, 232, 232, 0.8);}
.labelBkg{background-color:rgba(232, 232, 232, 0.5);}
.cluster rect{fill:#ffffde;stroke:#aaaa33;stroke-width:1px;}
.cluster text{fill:#333333;}
.cluster span{color:#333333;}
.flowchartTitleText{text-anchor:middle;font-size:18px;fill:#333333;}
rect.text{fill:none;stroke-width:0;}

.green rect { fill:#9f6 !important; stroke:#333 !important; stroke-width:2px !important; }
.green polygon { fill:#9f6 !important; stroke:#333 !important; stroke-width:2px !important; }
.green ellipse { fill:#9f6 !important; stroke:#333 !important; stroke-width:2px !important; }
.green circle { fill:#9f6 !important; stroke:#333 !important; stroke-width:2px !important; }
.green path { fill:#9f6 !important; stroke:#333 !important; stroke-width:2px !important; }
.orange rect { fill:#f96 !important; stroke:#333 !important; stroke-width:4px !important; }
.orange polygon { fill:#f96 !important; stroke:#333 !important; stroke-width:4px !important; }
.orange ellipse { fill:#f96 !important; stroke:#333 !important; stroke-width:4px !important; }
.orange circle { fill:#f96 !important; stroke:#333 !important; stroke-width:4px !important; }
.orange path { fill:#f96 !important; stroke:#333 !important; stroke-width:4px !important; }
  </style>
  <defs>
    <marker id="arrow_point" viewBox="0 0 10 10" refX="10" refY="5" markerWidth="8" markerHeight="8" orient="auto" markerUnits="userSpaceOnUse">
      <path d="M 0 0 L 10 5 L 0 10 z" class="marker"/>
    </marker>
    <marker id="arrow_point_start" viewBox="0 0 10 10" refX="4.5" refY="5" markerWidth="8" markerHeight="8" orient="auto" markerUnits="userSpaceOnUse">
      <path d="M 0 5 L 10 10 L 10 0 z" class="marker"/>
    </marker>
    <marker id="arrow_cross" viewBox="0 0 11 11" refX="12" refY="5.2" markerWidth="11" markerHeight="11" orient="auto" markerUnits="userSpaceOnUse">
      <path d="M 1 1 L 10 10 M 10 1 L 1 10" class="marker cross" fill="none" stroke-width="2"/>
    </marker>
    <marker id="arrow_cross_start" viewBox="0 0 11 11" refX="-1" refY="5.2" markerWidth="11" markerHeight="11" orient="auto" markerUnits="userSpaceOnUse">
      <path d="M 1 1 L 10 10 M 10 1 L 1 10" class="marker cross" fill="none" stroke-width="2"/>
    </marker>
    <marker id="arrow_circle" viewBox="0 0 10 10" refX="11" refY="5" markerWidth="11" markerHeight="11" orient="auto" markerUnits="userSpaceOnUse">
      <circle cx="5" cy="5" r="5" class="marker"/>
    </marker>
    <marker id="arrow_circle_start" viewBox="0 0 10 10" refX="-1" refY="5" markerWidth="11" markerHeight="11" orient="auto" markerUnits="userSpaceOnUse">
      <circle cx="5" cy="5" r="5" class="marker"/>
    </marker>
  </defs>
  <g class="root">
    <g class="clusters">
      <g class="cluster" id="subgraph-A">
        <rect x="0" y="0" width="529.359424" height="356.78516" class="cluster"/>
        <text x="264.679712" y="16" class="cluster-label" text-anchor="middle">A</text>
      </g>
    </g>
    <g class="edgePaths">
      <g class="edge" id="edge-L-sq-ci-0">
        <path d="M656.753968,205.39258L656.753968,234.79134333333332C656.753968,264.1901066666667,656.753968,322.98763333333335,656.753968,361.08809C656.753968,399.1885466666667,656.753968,416.5919333333333,656.753968,425.2936266666666L656.753968,433.99532" class="edge-thickness-normal edge-pattern-solid edge-thickness-normal edge-pattern-solid flowchart-link" marker-end="url(#arrow_point)"/>
      </g>
      <g class="edge" id="edge-L-od-ro-0">
        <path d="M158.06251199999997,69L174.7487093333333,69C191.43490666666662,69,224.8073013333333,69,259.29353489940394,73.15858894321916C293.77976846547455,77.31717788643833,329.3798409309491,85.63435577287665,347.1798771636864,89.79294471609582L364.9799133964237,93.95153365931499" class="edge-thickness-normal edge-pattern-solid edge-thickness-normal edge-pattern-solid flowchart-link" marker-end="url(#arrow_point)"/>
      </g>
      <g class="edge" id="edge-L-di-ro-0">
        <path d="M170.24051581502343,222.00613181502345L184.89704584585286,215.74599517918622C199.5535758766823,209.48585854334897,228.86663593834112,196.96558527167448,261.3772488795818,181.69275775630982C293.88786182082254,166.41993024094518,329.5960276416451,148.39454848189033,347.4501105520563,139.3818576023629L365.3041934624676,130.3691667228355" class="edge-thickness-normal edge-pattern-dotted edge-thickness-normal edge-pattern-solid flowchart-link" marker-end="url(#arrow_point)"/>
      </g>
      <g class="edge" id="edge-L-di-ro2-0">
        <path d="M191.15292347704312,253.97208452295686L202.32405223086926,254.71762243579738C213.4951809846954,255.4631603486379,235.8374384923477,256.95423617431896,256.5919005795071,257.6997740871595C277.3463626666666,258.445312,296.51302933333324,258.445312,306.0963626666666,258.445312L315.6796959999999,258.445312" class="edge-thickness-thick edge-pattern-solid edge-thickness-normal edge-pattern-solid flowchart-link" marker-end="url(#arrow_point)"/>
      </g>
      <g class="edge" id="edge-L-e-od3-0">
        <path d="M948.2882857124471,242.78365008812148L936.3287914270392,265.9505684067679C924.3692971416314,289.1174867254143,900.4503085708157,335.45132336270717,888.4908142854079,368.63699368135354C876.53132,401.82266400000003,876.53132,421.860168,876.53132,431.87892000000005L876.53132,441.897672" class="edge-thickness-normal edge-pattern-solid edge-thickness-normal edge-pattern-solid flowchart-link" marker-end="url(#arrow_point)"/>
      </g>
      <g class="edge" id="edge-L-e-f-0">
        <path d="M1014.769690287553,242.78365008812148L1026.7291845729608,265.9505684067679C1038.6886788583686,289.1174867254143,1062.6076674291844,335.45132336270717,1074.5671617145922,371.38699368135354C1086.526656,407.32266400000003,1086.526656,432.860168,1086.526656,445.62892000000005L1086.526656,458.397672" class="edge-thickness-normal edge-pattern-solid edge-thickness-normal edge-pattern-solid flowchart-link" marker-end="url(#arrow_point)"/>
      </g>
      <g class="edge" id="edge-L-cyr-cyr2-0">
        <path d="M1262.41652,205.39258L1262.41652,234.79134333333332C1262.41652,264.1901066666667,1262.41652,322.98763333333335,1262.41652,355.8863966666667C1262.41652,388.7851600000001,1262.41652,395.7851600000001,1262.41652,399.28515999999996L1262.41652,402.78516" class="edge-thickness-normal edge-pattern-solid edge-thickness-normal edge-pattern-solid flowchart-link" marker-end="url(#arrow_point)"/>
      </g>
    </g>
    <g class="edgeLabels">
      <g class="edgeLabel" id="edge-label-L-od-ro-0">
        <rect x="210.979696" y="49" width="94.39999999999999" height="40" class="edge-label-bg"/>
        <text x="258.179696" y="69" class="edge-label" text-anchor="middle" dominant-baseline="central"><tspan x="258.179696" y="69" dy="-0.75em">Two line</tspan><tspan x="258.179696" dy="1.5em">edge comment</tspan></text>
      </g>
    </g>
    <g class="nodes">
      <g class="node default green" id="node-sq">
        <rect x="579.359424" y="151.39258" width="154.789088" height="54" style="fill:#9f6 !important;stroke:#333 !important;stroke-width:2px !important"/>
        <text x="656.753968" y="178.39258" class="label" text-anchor="middle" dominant-baseline="central">Square shape</text>
      </g>
      <g class="node default" id="node-ci">
        <circle cx="656.753968" cy="489.397672" r="51.40235199999999"/>
        <text x="656.753968" y="489.397672" class="label" text-anchor="middle" dominant-baseline="central">Circle shape</text>
      </g>
      <g class="node default" id="node-od">
        <path d="M 58.617183999999995 49.5 L 158.06251199999997 49.5 L 143.14571279999998 69 L 158.06251199999997 88.5 L 58.617183999999995 88.5 Z"/>
        <text x="108.33984799999999" y="69" class="label" text-anchor="middle" dominant-baseline="central">Odd shape</text>
      </g>
      <g class="node default" id="node-ro">
        <path d="M 373.87502399999994 54.52538800000001 H 455.164096 A 5 5 0 0 1 460.164096 59.52538800000001 V 151.52538800000002 A 5 5 0 0 1 455.164096 156.52538800000002 H 373.87502399999994 A 5 5 0 0 1 368.87502399999994 151.52538800000002 V 59.52538800000001 A 5 5 0 0 1 373.87502399999994 54.52538800000001 Z"/>
        <text x="414.51955999999996" y="105.525388" class="label" text-anchor="middle" dominant-baseline="central"><tspan x="414.51955999999996" y="105.525388" dy="-1.5em">Rounded</tspan><tspan x="414.51955999999996" dy="1.5em">square</tspan><tspan x="414.51955999999996" dy="1.5em">shape</tspan></text>
      </g>
      <g class="node default orange" id="node-di">
        <polygon points="108.33984799999999,160.105464 196.67969599999998,248.445312 108.33984799999999,336.78516 20,248.445312" style="fill:#f96 !important;stroke:#333 !important;stroke-width:4px !important"/>
        <text x="108.33984799999999" y="248.445312" class="label" text-anchor="middle" dominant-baseline="central"><tspan x="108.33984799999999" y="248.445312" dy="-0.75em">Diamond with</tspan><tspan x="108.33984799999999" dy="1.5em">line break</tspan></text>
      </g>
      <g class="node default" id="node-ro2">
        <path d="M 324.6796959999999 231.445312 H 504.35942399999993 A 5 5 0 0 1 509.35942399999993 236.445312 V 280.445312 A 5 5 0 0 1 504.35942399999993 285.445312 H 324.6796959999999 A 5 5 0 0 1 319.6796959999999 280.445312 V 236.445312 A 5 5 0 0 1 324.6796959999999 231.445312 Z"/>
        <text x="414.51955999999996" y="258.445312" class="label" text-anchor="middle" dominant-baseline="central">Rounded square shape</text>
      </g>
      <g class="node default green" id="node-e">
        <circle cx="981.528988" cy="178.39258" r="72.46484799999999" style="fill:#9f6 !important;stroke:#333 !important;stroke-width:2px !important"/>
        <text x="981.528988" y="178.39258" class="label" text-anchor="middle" dominant-baseline="central"><tspan x="981.528988" y="178.39258" dy="-1.5em">Inner / circle</tspan><tspan x="981.528988" dy="1.5em">and some odd</tspan><tspan x="981.528988" dy="1.5em">special characters</tspan></text>
      </g>
      <g class="node default" id="node-od3">
        <path d="M 758.15632 445.897672 L 994.90632 445.897672 L 959.39382 489.397672 L 994.90632 532.8976720000001 L 758.15632 532.8976720000001 Z"/>
        <text x="876.53132" y="489.397672" class="label" text-anchor="middle" dominant-baseline="central"><tspan x="876.53132" y="489.397672" dy="-1.5em">Really long text with</tspan><tspan x="876.53132" dy="1.5em">linebreak</tspan><tspan x="876.53132" dy="1.5em">in an Odd shape</tspan></text>
      </g>
      <g class="node default" id="node-f">
        <path d="M 1049.90632 462.397672 H 1123.146992 A 5 5 0 0 1 1128.146992 467.397672 V 511.39767200000006 A 5 5 0 0 1 1123.146992 516.3976720000001 H 1049.90632 A 5 5 0 0 1 1044.90632 511.39767200000006 V 467.397672 A 5 5 0 0 1 1049.90632 462.397672 Z"/>
        <text x="1086.526656" y="489.397672" class="label" text-anchor="middle" dominant-baseline="central">,.?!+-*ز</text>
      </g>
      <g class="node default" id="node-cyr">
        <rect x="1207.334488" y="151.39258" width="110.164064" height="54"/>
        <text x="1262.41652" y="178.39258" class="label" text-anchor="middle" dominant-baseline="central">Cyrillic</text>
      </g>
      <g class="node default" id="node-cyr2">
        <circle cx="1262.41652" cy="489.397672" r="82.61251199999998"/>
        <text x="1262.41652" y="489.397672" class="label" text-anchor="middle" dominant-baseline="central">Circle shape Начало</text>
      </g>
    </g>
  </g>
</svg>
